<mxfile host="app.diagrams.net" modified="2021-06-10T17:39:57.740Z" agent="5.0 (Macintosh; Intel Mac OS X 10_15_7) AppleWebKit/537.36 (KHTML, like Gecko) Chrome/90.0.4430.212 Safari/537.36" etag="oMwJmwK1DJyNA_py-Q-_" version="14.7.6" type="github">
  <diagram id="sCx9bIU0miHuaN0mBLc-" name="Page-1">
    <mxGraphModel dx="786" dy="445" grid="1" gridSize="10" guides="1" tooltips="1" connect="1" arrows="1" fold="1" page="1" pageScale="1" pageWidth="850" pageHeight="1100" math="0" shadow="0">
      <root>
        <mxCell id="0" />
        <mxCell id="1" parent="0" />
        <mxCell id="IJUFwDiYUX83JYYmAMZr-2" value=":UserController" style="shape=umlLifeline;perimeter=lifelinePerimeter;whiteSpace=wrap;html=1;container=1;collapsible=0;recursiveResize=0;outlineConnect=0;" vertex="1" parent="1">
          <mxGeometry x="280" y="40" width="100" height="300" as="geometry" />
        </mxCell>
        <mxCell id="IJUFwDiYUX83JYYmAMZr-3" value="" style="shape=umlLifeline;participant=umlActor;perimeter=lifelinePerimeter;whiteSpace=wrap;html=1;container=1;collapsible=0;recursiveResize=0;verticalAlign=top;spacingTop=36;outlineConnect=0;" vertex="1" parent="1">
          <mxGeometry x="40" y="40" width="20" height="300" as="geometry" />
        </mxCell>
      </root>
    </mxGraphModel>
  </diagram>
</mxfile>
